<?xml version="1.0" standalone="no"?>
<!DOCTYPE svg PUBLIC "-//W3C//DTD SVG 20010904//EN"
 "http://www.w3.org/TR/2001/REC-SVG-20010904/DTD/svg10.dtd">
<svg version="1.0" xmlns="http://www.w3.org/2000/svg"
 width="147.000000pt" height="147.000000pt" viewBox="0 0 147.000000 147.000000"
 preserveAspectRatio="xMidYMid meet">
<metadata>
Created by potrace 1.11, written by Peter Selinger 2001-2013
</metadata>
<g transform="translate(0.000000,147.000000) scale(0.100000,-0.100000)"
fill="#000000" stroke="none">
<path d="M0 840 l0 -521 233 1 c240 1 261 4 377 53 11 5 22 -8 40 -46 66 -139
219 -217 412 -211 178 5 316 82 379 210 20 42 24 64 24 149 0 87 -3 106 -25
148 -51 101 -116 140 -325 192 -116 29 -148 46 -138 73 10 26 24 32 73 32 61
0 119 -40 120 -82 0 -10 6 -18 13 -18 25 0 251 80 258 91 15 24 -47 132 -104
182 -122 106 -369 123 -522 37 -19 -11 -35 -15 -35 -10 0 17 -60 97 -99 133
-98 88 -170 105 -457 107 l-224 1 0 -521z m434 227 c14 -12 37 -49 51 -82 21
-52 24 -73 22 -155 -5 -167 -70 -255 -177 -240 -8 1 -16 3 -18 5 -3 2 -4 323
-2 457 0 32 3 37 28 40 42 5 66 -2 96 -25z m566 -563 c127 -32 140 -38 140
-69 0 -33 -25 -44 -92 -41 -67 3 -111 31 -129 81 -15 40 -14 40 -110 20 -40
-9 -74 -13 -77 -10 -3 3 -1 5 5 5 5 0 20 20 32 44 l23 44 52 -24 c28 -12 98
-35 156 -50z"/>
</g>
</svg>
